# xmcd
#
# Track frame offsets:
#	150
#	13915
#	28736
#	41790
#	53743
#	62686
#	75940
#	90316
#	100797
#	113804
#	126602
#	138494
#	152890
#	166072
#	179139
#	191738
#	205485
#	218407
#	230655
#	243108
#	256757
#	267996
#	280306
#	290696
#
# Disc length: 4163 seconds
#
# Revision: 1
# Processed by: cddbd v1.5.2PL0 Copyright (c) Steve Scherf et al.
# Submitted via: audiograbber 1.83.01
#
DISCID=5e104118
DTITLE=The Greatest Country Music Recordings Of All Time - Record 37 and 38
DYEAR=1900
DGENRE=
TTITLE0=Stamps Quartet - Coming
TTITLE1=Bradley Kinkaid - Life Is Like A Mountain Railroad
TTITLE2=Chuck Wagon Gang - Jesus Hold My Hand
TTITLE3=Chuck Wagon Gang - A Beatiful Life
TTITLE4=Brown's Ferry Four - Over In The Gloryland
TTITLE5=Blue Sky Boys - Turn Your Radio On
TTITLE6=Monroe Brothers - What Would You Give In Exchange For Your Soul
TTITLE7=Stanley Brothers - Angel Band
TTITLE8=Doc And Chickie Williams - Beyond The Sunset
TTITLE9=Tennessee Ernie Ford - Precious Memories
TTITLE10=Jimmie Davis - Suppertime
TTITLE11=Red Foley - Peace In The Valley
TTITLE12=Roy Acuff - Great Speckled Bird
TTITLE13=Bailes Brothers - Dust On The Bible
TTITLE14=Molly O'Day - Tramp On The Street
TTITLE15=Wilma Lee and Stoney Cooper - Legend Of The Dogwood Tree
TTITLE16=Louvin Brothers - The Family Who Prays
TTITLE17=Stuart Hamblen - It Is No Secret
TTITLE18=Cowboy Copas - The Stone Was Rolled Away
TTITLE19=Tex Ritter - Dock Of Cards
TTITLE20=Flatt and Scruggs - Gone Home
TTITLE21=Hank Williams - I Saw The Light
TTITLE22=Ferlin Husky - Wings Of A Dove
TTITLE23=Nitty Gritty Dirt Band - Will The Circle Be Unbroken
EXTD=
EXTT0=
EXTT1=
EXTT2=
EXTT3=
EXTT4=
EXTT5=
EXTT6=
EXTT7=
EXTT8=
EXTT9=
EXTT10=
EXTT11=
EXTT12=
EXTT13=
EXTT14=
EXTT15=
EXTT16=
EXTT17=
EXTT18=
EXTT19=
EXTT20=
EXTT21=
EXTT22=
EXTT23=
PLAYORDER=
